<?xml version="1.0" encoding="utf-8"?>
<!-- Generator: Adobe Illustrator 19.0.0, SVG Export Plug-In . SVG Version: 6.00 Build 0)  -->
<svg version="1.1" id="Layer_1" xmlns="http://www.w3.org/2000/svg" xmlns:xlink="http://www.w3.org/1999/xlink" x="0px" y="0px"
	 viewBox="-163 261.7 283.3 271.3" style="enable-background:new -163 261.7 283.3 271.3;" xml:space="preserve">
<style type="text/css">
	.st0{stroke:#000000;stroke-miterlimit:10;}
	.st1{fill:#E48625;stroke:#000000;stroke-miterlimit:10;}
	.st2{fill:#C6C6C5;}
	.st3{fill:#A5A4A4;}
	.st4{fill:#2D2D2D;stroke:#000000;stroke-width:0.25;stroke-miterlimit:10;}
	.st5{opacity:0.2;fill:#6D6D6D;enable-background:new    ;}
	.st6{fill:#61BB46;}
</style>
<path id="XMLID_2_" class="st0" d="M108.3,480.7H-151c-6.6,0-12-5.4-12-12v-195c0-6.6,5.4-12,12-12h259.3c6.6,0,12,5.4,12,12v195
	C120.3,475.3,114.9,480.7,108.3,480.7z"/>
<path id="XMLID_1_" class="st1" d="M99,444.2h-240.8c-6.5,0-11.7-5.3-11.7-11.8V282.2c0-6.5,5.3-11.8,11.7-11.8H98.9
	c6.5,0,11.7,5.3,11.7,11.8v150.2C110.8,438.9,105.5,444.2,99,444.2z"/>
<path id="XMLID_3_" class="st2" d="M64.8,533h-171.4c-1.7,0-3-1.3-3-3v-30.9c0-1.7,1.3-3,3-3H64.8c1.7,0,3,1.3,3,3V530
	C67.8,531.7,66.4,533,64.8,533z"/>
<path id="XMLID_5_" class="st3" d="M-1.1,520.4h-39.3c-3.9,0-7.1-3.2-7.1-7.1l0,0c0-3.9,3.2-7.1,7.1-7.1h39.3c3.9,0,7.1,3.2,7.1,7.1
	l0,0C6,517.2,2.8,520.4-1.1,520.4z"/>
<rect id="XMLID_4_" x="-38.2" y="480.7" class="st4" width="34.5" height="33.3"/>
<path id="path3131" class="st5" d="M-3,385.3c2.3,2.8-7.4,5.4-21.7,5.9s-27.8-1.5-30.1-4.3c-2.3-2.8,7.4-5.4,21.7-5.9
	C-18.9,380.6-5.4,382.4-3,385.3"/>
<path id="path5075" class="st6" d="M23.8,322.1C13.7,314,8.9,306.9,8.9,306.9c-18.7,12.9-38.6,58.6-38.6,58.6
	c-9.3-15.3-18.7-19.6-18.7-19.6c-4.2,6.6-11.5,15.3-11.5,15.3c16.9,5.3,31.1,24.9,31.1,24.9C2,329.8,23.8,322.1,23.8,322.1z"/>
</svg>
