<?xml version="1.0" encoding="utf-8"?>
<!-- Generator: Adobe Illustrator 19.0.0, SVG Export Plug-In . SVG Version: 6.00 Build 0)  -->
<svg version="1.1" id="Layer_1" xmlns="http://www.w3.org/2000/svg" xmlns:xlink="http://www.w3.org/1999/xlink" x="0px" y="0px"
	 viewBox="0 0 283.3 271.3" style="enable-background:new 0 0 283.3 271.3;" xml:space="preserve">
<style type="text/css">
	.st0{stroke:#000000;stroke-miterlimit:10;}
	.st1{fill:#E48625;stroke:#000000;stroke-miterlimit:10;}
	.st2{fill:#C6C6C5;}
	.st3{fill:#A5A4A4;}
	.st4{fill:#2D2D2D;stroke:#000000;stroke-width:0.25;stroke-miterlimit:10;}
	.st5{opacity:0.2;fill:#6D6D6D;enable-background:new    ;}
	.st6{fill:#61BB46;}
</style>
<path id="XMLID_2_" class="st0" d="M271.3,219H12c-6.6,0-12-5.4-12-12V12C0,5.4,5.4,0,12,0h259.3c6.6,0,12,5.4,12,12v195
	C283.3,213.6,277.9,219,271.3,219z"/>
<path id="XMLID_1_" class="st1" d="M264.8,181.5H18.5c-6.6,0-12-5.4-12-12V17.3c0-6.6,5.4-12,12-12h246.2c6.6,0,12,5.4,12,12v152.2
	C276.8,176.1,271.4,181.5,264.8,181.5z"/>
<path id="XMLID_3_" class="st2" d="M227.8,271.3H56.4c-1.7,0-3-1.3-3-3v-30.9c0-1.7,1.3-3,3-3h171.4c1.7,0,3,1.3,3,3v30.9
	C230.8,270,229.4,271.3,227.8,271.3z"/>
<path id="XMLID_5_" class="st3" d="M161.9,258.7h-39.3c-3.9,0-7.1-3.2-7.1-7.1v0c0-3.9,3.2-7.1,7.1-7.1h39.3c3.9,0,7.1,3.2,7.1,7.1
	v0C169,255.5,165.8,258.7,161.9,258.7z"/>
<rect id="XMLID_4_" x="124.8" y="219" class="st4" width="34.5" height="33.3"/>
<path id="path3131" class="st5" d="
	M159,121.6c2.3,2.8-7.4,5.4-21.7,5.9c-14.3,0.5-27.8-1.5-30.1-4.3c-2.3-2.8,7.4-5.4,21.7-5.9C143.1,116.9,156.6,118.7,159,121.6"/>
<path id="path5075" class="st6" d="
	M185.8,58.4c-10.1-8.1-14.9-15.2-14.9-15.2c-18.7,12.9-38.6,58.6-38.6,58.6c-9.3-15.3-18.7-19.6-18.7-19.6
	c-4.2,6.6-11.5,15.3-11.5,15.3c16.9,5.3,31.1,24.9,31.1,24.9C164,66.1,185.8,58.4,185.8,58.4z"/>
</svg>
