<?xml version="1.0" encoding="utf-8"?>
<!-- Generator: Adobe Illustrator 19.0.0, SVG Export Plug-In . SVG Version: 6.00 Build 0)  -->
<svg version="1.1" id="Layer_1" xmlns="http://www.w3.org/2000/svg" xmlns:xlink="http://www.w3.org/1999/xlink" x="0px" y="0px"
	 viewBox="0 0 366 339.9" style="enable-background:new 0 0 366 339.9;" xml:space="preserve">
<style type="text/css">
	.st0{fill:#E48625;stroke:#000000;stroke-miterlimit:10;}
	.st1{fill:#E48625;stroke:#E48625;stroke-miterlimit:10;}
</style>
<path id="XMLID_1_" class="st0" d="M353.1,42H12.9C5.8,42,0,36.2,0,29.1V12.9C0,5.8,5.8,0,12.9,0h340.2c7.1,0,12.9,5.8,12.9,12.9
	v16.2C366,36.2,360.2,42,353.1,42z"/>
<path id="XMLID_2_" class="st0" d="M353.1,128H12.9C5.8,128,0,122.2,0,115.1v-14.8c0-7.1,5.8-12.9,12.9-12.9h340.2
	c7.1,0,12.9,5.8,12.9,12.9v14.8C366,122.2,360.2,128,353.1,128z"/>
<path id="XMLID_3_" class="st1" d="M353.1,211.7H12.9c-7.1,0-12.9-5.8-12.9-12.9v-14.8c0-7.1,5.8-12.9,12.9-12.9h340.2
	c7.1,0,12.9,5.8,12.9,12.9v14.8C366,205.9,360.2,211.7,353.1,211.7z"/>
<path id="XMLID_4_" class="st1" d="M176.3,333.8L4,208.4c-4.8-3.5-5.4-9.2-1.2-12.7l14.4-11.9c4.2-3.4,11.5-3.4,16.4,0.1
	l172.3,125.4c4.8,3.5,5.4,9.2,1.2,12.7l-14.4,11.9C188.5,337.4,181.1,337.3,176.3,333.8z"/>
<path id="XMLID_5_" class="st1" d="M362.6,207.3L197.3,337.2c-4.6,3.7-12.3,3.7-17,0.1l-16.5-12.6c-4.7-3.6-4.8-9.5-0.1-13.2
	L329,181.6c4.6-3.7,12.3-3.7,17-0.1l16.5,12.6C367.2,197.8,367.2,203.7,362.6,207.3z"/>
</svg>
